<?xml version="1.0" encoding="UTF-8"?>
<svg version="1.1" xmlns="http://www.w3.org/2000/svg" width="700" height="685">
<path d="M0 0 C231 0 462 0 700 0 C700 226.05 700 452.1 700 685 C469 685 238 685 0 685 C0 458.95 0 232.9 0 0 Z " fill="#FDFDFD" transform="translate(0,0)"/>
<path d="M0 0 C231 0 462 0 700 0 C700 226.05 700 452.1 700 685 C469 685 238 685 0 685 C0 458.95 0 232.9 0 0 Z M155 19 C153.48837996 27.35513939 153.71618944 36.17260416 153.46484375 44.63671875 C153.42171668 46.0110614 153.37830016 47.38539499 153.33460999 48.75971985 C153.2216046 52.33844692 153.11247362 55.9172815 153.00421143 59.49615479 C152.89256511 63.16352677 152.77716892 66.83078067 152.66210938 70.49804688 C152.43778257 77.66525557 152.21755791 84.8325823 152 92 C150.86570557 91.97905273 149.73141113 91.95810547 148.56274414 91.93652344 C144.31922227 91.86364497 140.07575474 91.8180278 135.83178711 91.78027344 C134.00161407 91.76026626 132.17150408 91.73305149 130.34155273 91.69824219 C127.69759488 91.64923997 125.05448835 91.62692239 122.41015625 91.609375 C121.60353043 91.58872986 120.7969046 91.56808472 119.96583557 91.54681396 C110.87899119 91.54329486 102.42920091 95.59781254 96 102 C91.11024082 108.90944232 88.84792555 113.86469973 88.90234375 122.2890625 C88.9037587 123.10748627 88.90517365 123.92591003 88.90663147 124.76913452 C88.9122371 127.38779325 88.92479052 130.00636704 88.9375 132.625 C88.94251428 134.39843627 88.94707731 136.17187387 88.95117188 137.9453125 C88.96220836 142.29690782 88.97947675 146.6484395 89 151 C88.40501709 150.99476318 87.81003418 150.98952637 87.19702148 150.98413086 C74.0814573 150.88592883 60.98361041 151.01443394 47.875 151.4375 C46.62130615 151.47673584 45.3676123 151.51597168 44.07592773 151.55639648 C40.38279497 151.68305847 36.69184307 151.84047592 33 152 C31.64876471 152.03928344 30.2975277 152.07850769 28.94628906 152.11767578 C27.61258513 152.17241504 26.27892406 152.22821078 24.9453125 152.28515625 C23.75695801 152.32648682 22.56860352 152.36781738 21.34423828 152.41040039 C16.26295804 153.3062459 13.13987129 155.76770671 9.6875 159.5 C6.73569502 163.87304441 6.47467855 167.74678548 7 173 C9.18150024 178.45375059 11.95488852 181.51035989 17.31860352 184.10920715 C23.18846495 186.05924722 29.52086078 185.8576816 35.65625 186.046875 C37.16945703 186.10682131 38.68260054 186.16839122 40.19567871 186.23150635 C44.15381405 186.3922894 48.11241821 186.53117934 52.0715332 186.66534424 C56.83470126 186.83138712 61.59682372 187.02492416 66.35913086 187.21379089 C73.5721745 187.49679898 80.78566131 187.74510367 88 188 C88.33 204.5 88.66 221 89 238 C83.43125 238.12375 77.8625 238.2475 72.125 238.375 C59.48258688 238.70177844 46.83946689 239.06571301 34.20843506 239.7041626 C32.74507117 239.77594965 31.28138262 239.84141833 29.81744385 239.90032959 C27.77275561 239.98446565 25.73068212 240.09250196 23.6875 240.20703125 C22.53636719 240.2635083 21.38523437 240.31998535 20.19921875 240.37817383 C15.54738696 241.28234168 12.34695685 243.51370278 9.1875 247 C6.64415686 251.28352528 6.21125663 256.09915635 7 261 C9.26456894 266.27146546 11.89651904 269.33366927 17 272 C19.54245301 272.54056337 19.54245301 272.54056337 22.3359375 272.62109375 C23.48030273 272.68538574 24.62466797 272.74967773 25.80371094 272.81591797 C27.20244269 272.87798728 28.60120922 272.93927532 30 273 C31.76076404 273.08565215 33.52150465 273.1717868 35.28222656 273.25830078 C40.33978546 273.50023424 45.39809239 273.7190116 50.45703125 273.92993164 C53.62515545 274.06250651 56.7930418 274.19997497 59.9609375 274.33789062 C62.00780007 274.42477242 64.05467471 274.51137061 66.1015625 274.59765625 C67.03207428 274.63826675 67.96258606 274.67887726 68.92129517 274.72071838 C75.29776652 274.98207027 81.60554547 275 88 275 C88 291.83 88 308.66 88 326 C83.05 326 78.1 326 73 326 C69.34435808 326.24133567 65.68868596 326.48343965 62.03515625 326.75488281 C57.5154878 327.05879931 52.99718745 327.13969837 48.46875 327.2109375 C47.6538208 327.2252179 46.8388916 327.23949829 45.99926758 327.25421143 C42.64604547 327.31181248 39.29300178 327.36683408 35.93945312 327.40136719 C33.44882423 327.42904084 30.9590466 327.47481706 28.46875 327.5234375 C27.3467218 327.5283168 27.3467218 327.5283168 26.20202637 327.53329468 C20.07865185 327.67580148 15.11042279 328.83253876 10.6875 333.375 C7.51771304 338.30577971 6.2972453 342.07678177 7 348 C9.48740881 353.70075667 12.60770586 356.85588629 18 360 C21.23017708 360.70510046 21.23017708 360.70510046 24.671875 360.79296875 C25.96375732 360.86531738 27.25563965 360.93766602 28.58666992 361.01220703 C29.9744231 361.0711938 31.36220054 361.12961217 32.75 361.1875 C34.18277063 361.26014845 35.61546972 361.33422082 37.0480957 361.40966797 C40.67291161 361.59538785 44.29830645 361.75805629 47.92462158 361.91143799 C49.89376669 361.99546674 51.86266522 362.08521687 53.83154297 362.17529297 C65.56930313 362.71150351 77.24164491 363 89 363 C89 379.83 89 396.66 89 414 C81.74 414 74.48 414 67 414 C59.57401318 414.1292664 52.15663538 414.35900616 44.73486328 414.63476562 C42.54991774 414.71259916 40.36465991 414.78205195 38.17919922 414.84375 C34.96230789 414.93491504 31.74712937 415.05058414 28.53125 415.171875 C27.07350159 415.20652863 27.07350159 415.20652863 25.58630371 415.24188232 C19.92824767 415.48908868 16.47494059 416.20526444 12 420 C8.08784891 424.33508634 6.51293483 427.79432049 6.58984375 433.73828125 C7.39090611 438.15556796 9.9310512 441.7984423 13 445 C17.44594168 447.62967389 20.87844194 448.41840161 26.01513672 448.6159668 C26.68900925 448.64566559 27.36288177 448.67536438 28.05717468 448.70596313 C30.26436752 448.80003371 32.47175354 448.87476264 34.6796875 448.94921875 C36.21815765 449.01099511 37.75657946 449.07398626 39.29495239 449.13813782 C43.32882348 449.30310402 47.36313623 449.4516332 51.39776611 449.59667969 C56.24667268 449.77445023 61.09477849 449.97274677 65.94302368 450.16757965 C73.29485682 450.4607325 80.64722215 450.72788932 88 451 C88 467.5 88 484 88 501 C82.51375 501.12375 77.0275 501.2475 71.375 501.375 C58.94417107 501.69301596 46.53486324 502.14053631 34.125 502.9375 C32.8982959 503.01210449 31.6715918 503.08670898 30.40771484 503.16357422 C20.72376045 503.58654663 20.72376045 503.58654663 12.0390625 507.41015625 C8.12699793 511.98143612 6.53711771 515.92870667 7 522 C8.74265873 527.80886243 11.58783037 531.68636 16.62207031 535.09985352 C20.20513607 536.45619473 23.82223187 536.45708283 27.609375 536.58984375 C28.48027771 536.62665756 29.35118042 536.66347137 30.24847412 536.70140076 C41.91045116 537.16397201 53.58130712 537.35593716 65.25 537.5625 C67.56771367 537.6058354 69.88542207 537.64945359 72.203125 537.69335938 C77.802027 537.79882112 83.40098306 537.90083762 89 538 C88.97381592 539.00788574 88.94763184 540.01577148 88.9206543 541.05419922 C88.82931759 544.83733419 88.77245239 548.62037434 88.7253418 552.40429688 C88.70038558 554.03369603 88.66640746 555.66298542 88.62280273 557.29199219 C88.37088993 566.95358923 88.26925515 574.74384216 94 583 C94.721875 584.0725 95.44375 585.145 96.1875 586.25 C103.78158776 593.67533025 112.68292166 597.22887145 123.24267578 597.22659302 C123.96696777 597.21627045 124.69125977 597.20594788 125.4375 597.1953125 C126.20304199 597.1924826 126.96858398 597.18965271 127.75732422 597.18673706 C130.17171724 597.17565648 132.58572154 597.15057601 135 597.125 C136.64973418 597.11495448 138.29947424 597.1058314 139.94921875 597.09765625 C143.96629268 597.07575712 147.98308073 597.04131325 152 597 C152.02283554 597.74200653 152.04567108 598.48401306 152.06919861 599.24850464 C152.28620287 606.27981897 152.50653182 613.3110197 152.73049068 620.3421154 C152.84548428 623.95588816 152.95924268 627.56969058 153.07006836 631.18359375 C153.17729329 634.67853715 153.28790627 638.1733591 153.40075874 641.66812515 C153.46339517 643.63421817 153.52262388 645.60041882 153.58177185 647.56661987 C153.16442993 660.76856119 153.16442993 660.76856119 157.8125 672.5 C158.31394531 673.1290625 158.81539062 673.758125 159.33203125 674.40625 C162.7174667 677.64104547 165.69076354 678.3096289 170.3125 678.375 C175.81500933 678.24293978 178.71609837 677.49706255 183 674 C188.08273554 666.54224076 187.63397698 658.64228989 187.6875 649.9375 C187.71689701 647.80172184 187.75181896 645.66609713 187.78811646 643.53042603 C187.81230413 642.10466185 187.83415234 640.67885618 187.85372925 639.25302124 C187.92671735 634.7357105 188.16884096 630.26006158 188.51953125 625.75390625 C189.11238648 616.18628331 189 606.5859734 189 597 C206.16 597 223.32 597 241 597 C241.12375 601.846875 241.2475 606.69375 241.375 611.6875 C241.49294817 615.60256837 241.61815576 619.51715061 241.74931335 623.43177795 C241.77709366 624.26140549 241.80487396 625.09103302 241.83349609 625.94580078 C241.86135193 626.77621887 241.88920776 627.60663696 241.91790771 628.46221924 C242.00039675 631.01226493 242.07453648 633.56244352 242.14697266 636.11279297 C242.26856923 640.30880131 242.42126696 644.50274004 242.59429932 648.69692993 C242.65600412 650.30446743 242.70786273 651.91241569 242.74945068 653.52059937 C242.91508029 664.90976199 242.91508029 664.90976199 248.34301758 674.64794922 C252.7623972 678.25403797 256.69081488 678.43092928 262.2421875 678.3125 C267.58867917 677.70666525 270.72761583 675.57523599 274.13964844 671.35107422 C276.28147226 667.49298055 276.68993839 664.31637465 276.828125 660.0078125 C276.88635941 658.85066994 276.88635941 658.85066994 276.94577026 657.67015076 C277.06631063 655.1555457 277.15901779 652.640834 277.25 650.125 C277.32586049 648.38530023 277.40252864 646.64563551 277.47998047 644.90600586 C278.15167327 628.92883903 278.14737712 612.99041731 278 597 C295.16 597 312.32 597 330 597 C330 602.94 330 608.88 330 615 C330.22619731 622.71887771 330.5951414 630.42432785 331.00708008 638.13525391 C331.12826038 640.47916635 331.23944494 642.8236151 331.34106445 645.16845703 C331.49042917 648.60598942 331.66961634 652.04083245 331.85546875 655.4765625 C331.89528366 656.51624176 331.93509857 657.55592102 331.97612 658.62710571 C332.44306074 666.3126991 334.46200571 671.67012303 340.125 677 C344.73785235 678.60447038 349.17798303 678.64529933 354 678 C357.46090454 676.41632508 357.46090454 676.41632508 360 674 C360.763125 673.34 361.52625 672.68 362.3125 672 C365.43226123 668.30250521 365.15641171 664.27391565 365.28125 659.57421875 C365.33647827 657.67857178 365.33647827 657.67857178 365.39282227 655.74462891 C365.41031525 655.08182922 365.42780823 654.41902954 365.4458313 653.73614502 C365.91202734 636.10474207 365.91202734 636.10474207 366.5625 628.125 C367.19842662 617.76848081 367 607.37602488 367 597 C384.16 597 401.32 597 419 597 C419.12375 602.445 419.2475 607.89 419.375 613.5 C419.69501833 625.59000094 420.05000458 637.68061731 420.7041626 649.7578125 C420.81020416 651.76895794 420.89918845 653.78097968 420.98779297 655.79296875 C421.47876838 664.13845734 422.34800883 670.43708179 428.5625 676.5 C433.98755363 678.86729613 439.42218733 679.05229784 445.125 677.375 C450.18604735 674.93173576 452.17612188 671.04734629 454 666 C454.59426893 662.68280067 454.71665681 659.41576248 454.79296875 656.05078125 C454.84750969 654.64906929 454.84750969 654.64906929 454.90315247 653.21903992 C455.01520075 650.25051059 455.10217641 647.28190591 455.1875 644.3125 C455.28880024 641.36899064 455.39528086 638.42570029 455.50222778 635.48239136 C455.57073854 633.57844838 455.63674116 631.67441341 455.70016479 629.77029419 C455.87117289 624.7847078 456.12748846 619.82749104 456.55078125 614.85546875 C457.00619832 608.91920618 457 602.95370624 457 597 C474.16 597 491.32 597 509 597 C509.06058594 600.97546875 509.12117188 604.9509375 509.18359375 609.046875 C509.23468748 612.24932583 509.28659384 615.45176124 509.33904266 618.65419006 C509.39389288 622.01666803 509.44692762 625.37914964 509.49731445 628.74169922 C509.55559818 632.61432888 509.61912031 636.48684402 509.68359375 640.359375 C509.70866249 642.13667999 509.70866249 642.13667999 509.73423767 643.94989014 C509.29328644 658.62230509 509.29328644 658.62230509 514 672 C514.61875 672.928125 515.2375 673.85625 515.875 674.8125 C520.84957862 678.29470504 526.04030544 678.36742876 532 678 C537.47518384 676.46808328 540.26528773 672.81249249 543 668 C543.70760692 664.64080254 543.70760692 664.64080254 543.79296875 661.0234375 C543.82905746 660.35191147 543.86514618 659.68038544 543.90232849 658.98851013 C544.01561836 656.7844628 544.10201526 654.58028644 544.1875 652.375 C544.26033504 650.83547235 544.33441136 649.29600297 544.40966797 647.7565918 C545.20435241 630.84866892 545.630338 613.92180397 546 597 C547.45067871 597.02356567 547.45067871 597.02356567 548.93066406 597.04760742 C552.57608453 597.10259239 556.22146973 597.13659475 559.8671875 597.16479492 C561.43430783 597.17972752 563.00138754 597.20008115 564.56835938 597.22631836 C574.17031772 597.38287203 582.75362776 597.00202495 592 594 C592 593.34 592 592.68 592 592 C592.804375 591.9071875 592.804375 591.9071875 593.625 591.8125 C601.03724458 589.27673212 604.75476367 582.51073277 608.05517578 575.88012695 C609.26956557 572.17827777 609.24902081 568.70452051 609.1953125 564.85546875 C609.1924826 564.08568192 609.18965271 563.31589508 609.18673706 562.52278137 C609.17559157 560.07752575 609.15049781 557.63264388 609.125 555.1875 C609.1149629 553.52409385 609.10583833 551.86068193 609.09765625 550.19726562 C609.07567073 546.13136763 609.04118014 542.06574706 609 538 C609.76304443 538.00942627 610.52608887 538.01885254 611.31225586 538.02856445 C623.50732359 538.10675449 635.6863486 537.72818265 647.87329102 537.31030273 C650.34868756 537.22790419 652.82428972 537.15148183 655.30004883 537.08081055 C658.91024196 536.97745852 662.5194239 536.85598461 666.12890625 536.73046875 C667.78364708 536.6880732 667.78364708 536.6880732 669.47181702 536.64482117 C676.5589729 536.37146305 682.21077499 535.39852077 687.375 530.125 C690.80636046 525.83807486 690.89593457 521.51757481 690.66796875 516.17578125 C689.6126428 511.15835436 686.9274497 508.16328528 683 505 C679.57709964 503.28854982 675.6486428 503.64990655 671.875 503.5 C670.94805832 503.45966644 670.02111664 503.41933289 669.06608582 503.3777771 C666.04422696 503.24744408 663.02214008 503.12362501 660 503 C657.94179852 502.91261613 655.88361162 502.82488809 653.82543945 502.73681641 C639.21856857 502.11589368 624.61016071 501.53779733 610 501 C609.67 484.17 609.34 467.34 609 450 C615.4659375 450.061875 615.4659375 450.061875 622.0625 450.125 C634.18708894 450.15552214 646.29333138 449.90316394 658.40621948 449.36322021 C660.12708601 449.28810327 661.84823729 449.21923413 663.5696106 449.15679932 C666.00599868 449.06597729 668.44001488 448.95045895 670.875 448.828125 C671.59364731 448.80501251 672.31229462 448.78190002 673.05271912 448.75808716 C679.5377754 448.37990365 683.85210246 446.14789754 688.4375 441.5625 C690.83910618 436.08683791 690.86031803 430.88008674 690 425 C687.85006014 420.15119946 683.7230716 418.00636442 679 416 C675.61302434 415.49729079 675.61302434 415.49729079 671.98486328 415.47583008 C671.31099075 415.45588486 670.63711823 415.43593964 669.94282532 415.41539001 C667.73544002 415.35336247 665.52816594 415.31130296 663.3203125 415.26953125 C661.78185879 415.23021431 660.24343667 415.18964286 658.70504761 415.14787292 C654.67100406 415.04169486 650.63675939 414.9524895 646.60223389 414.86688232 C641.75350079 414.76043885 636.90528442 414.63279904 632.05697632 414.50873566 C624.70491837 414.32296646 617.35271965 414.16403705 610 414 C609.67 396.84 609.34 379.68 609 362 C619.6425 362.061875 619.6425 362.061875 630.5 362.125 C650.01703615 362.20043913 650.01703615 362.20043913 669.5 361.1875 C670.41458984 361.11740723 671.32917969 361.04731445 672.27148438 360.97509766 C678.28050854 360.38939316 682.95881481 359.15458437 687.25 354.625 C690.52543511 349.71184734 691.61588033 345.95350985 691 340 C688.88530006 334.88947516 686.42072448 331.67624692 681.51708984 329.01489258 C672.28480164 325.29242681 659.75803084 326.73780536 649.82763672 326.49731445 C647.39928046 326.43809215 644.97114577 326.37276531 642.54296875 326.30664062 C640.93230104 326.26525841 639.32162415 326.224232 637.7109375 326.18359375 C637.01858002 326.16485703 636.32622253 326.1461203 635.61288452 326.1268158 C626.73917533 325.91909613 617.88291146 326 609 326 C609 309.17 609 292.34 609 275 C614.589375 274.87625 620.17875 274.7525 625.9375 274.625 C638.39830567 274.30361614 650.85983975 273.94724599 663.30838013 273.2958374 C664.71682715 273.22417047 666.12560345 273.15868174 667.53463745 273.09967041 C677.97465011 272.70910745 677.97465011 272.70910745 687 268 C690.52432209 263.45248762 690.61989729 258.49433272 690.48828125 252.91796875 C689.73340095 248.40680405 687.58058568 245.74292573 684 243 C680.67812335 240.9928518 677.95878217 240.67778932 674.10498047 240.49755859 C672.91629364 240.4376474 671.72760681 240.37773621 670.50289917 240.31600952 C669.22061432 240.26071075 667.93832947 240.20541199 666.6171875 240.1484375 C665.27919133 240.0847527 663.94122968 240.02033866 662.603302 239.95523071 C659.79760615 239.82050349 656.99172726 239.691604 654.18554688 239.56738281 C650.61473989 239.40928046 647.04448092 239.24148607 643.47430229 239.06982994 C640.04291749 238.90522373 636.61131774 238.74533183 633.1796875 238.5859375 C631.90954803 238.52659027 630.63940857 238.46724304 629.33078003 238.40609741 C627.51938034 238.3256871 627.51938034 238.3256871 625.67138672 238.24365234 C624.62199921 238.19639008 623.57261169 238.14912781 622.49142456 238.10043335 C617.99601795 237.97111973 613.49726613 238 609 238 C609 221.17 609 204.34 609 187 C622.375 187.0625 622.375 187.0625 626.52880859 187.09008789 C632.52294025 187.10355102 638.35898714 186.93357232 644.31005859 186.23852539 C647.70175897 185.93777287 651.07209647 185.87982517 654.4765625 185.82421875 C655.13788177 185.81229996 655.79920105 185.80038116 656.4805603 185.7881012 C659.22078275 185.7392401 661.96054651 185.69179738 664.70117188 185.67407227 C672.63621853 185.61307676 679.23151151 185.54822544 686 181 C690.48494611 175.48006632 691.60798573 171.05263441 691 164 C688.50609457 159.01218915 684.96001687 155.52817794 680 153 C676.61595756 152.24917689 673.30192521 152.16503476 669.84375 152.109375 C668.86498901 152.07442932 667.88622803 152.03948364 666.87780762 152.003479 C663.75211203 151.89677606 660.62665507 151.82258911 657.5 151.75 C655.46217042 151.68709802 653.42440704 151.62201128 651.38671875 151.5546875 C647.32184209 151.42260338 643.25686221 151.30220168 639.19140625 151.18945312 C629.4565197 150.90751888 619.72827051 150.45121912 610 150 C609.98541748 149.08299316 609.97083496 148.16598633 609.95581055 147.22119141 C609.89424129 143.77287775 609.81999915 140.32529547 609.73754883 136.87744141 C609.70458303 135.39381957 609.67646583 133.91008085 609.65356445 132.42626953 C609.45037836 119.60393036 608.74182321 109.80036574 599.4765625 100.203125 C591.71420788 93.29781269 584.60675854 91.83522737 574.41796875 91.90234375 C573.60378983 91.9037587 572.7896109 91.90517365 571.95075989 91.90663147 C569.36296844 91.91220683 566.77526508 91.92475476 564.1875 91.9375 C562.42773563 91.94251819 560.66796989 91.94708054 558.90820312 91.95117188 C554.60543506 91.96216819 550.30273244 91.97941579 546 92 C546.00598206 91.22357651 546.01196411 90.44715302 546.01812744 89.64720154 C546.07060679 77.45932828 545.51417047 65.31301967 544.93798828 53.14135742 C544.80974221 50.40992098 544.69214259 47.67832999 544.58349609 44.94604492 C544.42549322 40.97470222 544.23729576 37.00508293 544.046875 33.03515625 C544.0018988 31.81635269 543.95692261 30.59754913 543.9105835 29.34181213 C543.58218021 23.08363756 543.35144313 18.69699891 539 14 C536.87880872 13.04768403 536.87880872 13.04768403 535 13 C535 12.34 535 11.68 535 11 C529.4024338 9.1341446 523.92842334 9.03578833 518.625 11.6875 C513.66825945 16.05415239 511.20359616 19.2816483 510.70288086 25.96704102 C510.618676 27.64575941 510.5397139 29.32474564 510.46484375 31.00390625 C510.40037804 32.36998268 510.40037804 32.36998268 510.33460999 33.76365662 C510.24424537 35.70797874 510.15613164 37.65240656 510.07006836 39.59692383 C509.94154897 42.47192387 509.80240526 45.34625719 509.66210938 48.22070312 C508.99737682 62.85981338 509 77.30727391 509 92 C491.51 92 474.02 92 456 92 C455.5625 69.4375 455.5625 69.4375 455.43188477 62.47827148 C455.33330697 57.38363942 455.21047979 52.28984051 455.07794189 47.19598389 C455.02541298 45.04205144 454.98011307 42.88793206 454.94158936 40.73370361 C454.88405375 37.58346638 454.80201985 34.43469493 454.71484375 31.28515625 C454.70288467 30.33684433 454.6909256 29.38853241 454.67860413 28.41148376 C454.49274344 22.7971401 453.75817231 19.44431525 450 15 C446.32284136 11.68158854 443.81324696 10.14221545 438.8125 9.75 C432.99461372 10.13150074 428.67277338 11.32722662 424.5 15.5 C422.74275212 17.9428338 422.74275212 17.9428338 423 21 C422.34 21 421.68 21 421 21 C420.73749401 28.92830327 420.47659557 36.85665718 420.21769714 44.785079 C420.09740537 48.46734113 419.97657911 52.14958403 419.85449219 55.83178711 C419.73648942 59.39142334 419.6199418 62.95110462 419.50436401 66.51082039 C419.43887783 68.51639639 419.37192054 70.52192419 419.30493164 72.52745056 C419.24486938 74.38836082 419.24486938 74.38836082 419.18359375 76.28686523 C419.13029907 77.90902199 419.13029907 77.90902199 419.07592773 79.56394958 C418.98434698 83.70836526 419 87.8545726 419 92 C401.84 92 384.68 92 367 92 C367.04125 88.4525 367.0825 84.905 367.125 81.25 C367.16120461 69.04826048 366.83929351 56.85887113 366.36322021 44.66711426 C366.28791603 42.6853355 366.21907796 40.70330018 366.15679932 38.72106934 C366.06596943 35.9002016 365.95025699 33.08138367 365.828125 30.26171875 C365.79345627 28.99285072 365.79345627 28.99285072 365.75808716 27.698349 C365.45088219 21.55740341 363.7206684 17.84644139 359.39453125 13.3203125 C355.41735991 10.3153386 352.27776681 9.26605824 347.2734375 9.58203125 C342.1555128 10.52295555 338.49633962 12.3950594 334.95141602 16.19726562 C331.52619812 21.49579078 332.1552464 28.20769689 331.953125 34.3046875 C331.89315692 35.71191089 331.83158624 37.1190668 331.76849365 38.52615356 C331.60730555 42.22145583 331.46871848 45.91727542 331.33465576 49.61364746 C331.19454534 53.35632304 331.03142733 57.09799048 330.87109375 60.83984375 C330.64020997 66.33016077 330.41718872 71.82067342 330.21191406 77.31201172 C330.15006927 78.96364822 330.15006927 78.96364822 330.0869751 80.64865112 C329.98880753 84.43127153 330 88.21610597 330 92 C313.17 92 296.34 92 279 92 C278.87625 87.33875 278.7525 82.6775 278.625 77.875 C278.43446008 71.58268419 278.2203463 65.29133484 278 59 C277.97077454 58.14750671 277.94154907 57.29501343 277.91143799 56.41668701 C277.73116813 51.22066642 277.52778354 46.0263132 277.2958374 40.83233643 C277.22391789 39.15954942 277.15847228 37.48647086 277.09967041 35.81317139 C277.01525059 33.45371697 276.90697983 31.09646697 276.79296875 28.73828125 C276.7730336 28.04270615 276.75309845 27.34713104 276.7325592 26.63047791 C276.38994799 20.48967828 273.93928635 16.83983577 269.5625 12.6875 C265.00786579 9.68810674 260.37072812 9.5288835 255 10 C250.15423009 12.66042269 245.78643944 15.64068169 244 21 C243.48838831 26.32042526 243.23321041 31.66354123 242.9375 37 C242.89264465 37.78846313 242.84778931 38.57692627 242.80157471 39.38928223 C241.82171049 56.94713835 241.85584317 74.41286675 242 92 C224.51 92 207.02 92 189 92 C189.04125 88.08125 189.0825 84.1625 189.125 80.125 C189.15842817 67.87066792 188.86604401 55.63246971 188.36322021 43.38885498 C188.28795862 41.51007412 188.21911332 39.63102487 188.15679932 37.75177002 C188.06605156 35.08465992 187.9504085 32.41973413 187.828125 29.75390625 C187.80501251 28.95810654 187.78190002 28.16230682 187.75808716 27.34239197 C187.44093729 21.37310081 185.54770168 17.78756163 181.46484375 13.3203125 C177.10010972 9.9044337 173.23326357 9.19478039 167.7265625 9.4375 C161.97226349 10.62463332 158.17948677 14.23076984 155 19 Z " fill="#FCFDFC" transform="translate(0,0)"/>
<path d="M0 0 C5.11724827 2.51256052 8.48584773 5.89465777 11 11 C11.38919854 13.94246423 11.62627684 16.70462213 11.73046875 19.65625 C11.77070663 20.50402008 11.81094452 21.35179016 11.85240173 22.22525024 C11.97859101 24.98308466 12.08379961 27.74123568 12.1875 30.5 C12.26824337 32.39438876 12.34946337 34.28875725 12.43115234 36.18310547 C13.06101019 51.46964755 13.16106024 66.69927678 13 82 C30.49 82 47.98 82 66 82 C65.95875 76.9675 65.9175 71.935 65.875 66.75 C65.84233793 54.31822337 66.05819325 41.91585001 66.69171143 29.49914551 C66.77192754 27.92246723 66.84760648 26.34555127 66.91864014 24.76843262 C67.0208512 22.55548378 67.14202195 20.34443115 67.26953125 18.1328125 C67.33760986 16.87355957 67.40568848 15.61430664 67.47583008 14.31689453 C68.50245889 7.8204907 72.03390025 4.80382109 77 1 C80.96101398 -0.98050699 85.31655251 -0.10791276 89.5625 0.5625 C94.49909711 2.62689515 97.61385125 6.22770249 100 11 C100.17755991 12.92138448 100.29690292 14.84825846 100.38891602 16.77563477 C100.4788961 18.59376427 100.4788961 18.59376427 100.57069397 20.44862366 C100.63115402 21.76624191 100.69161407 23.08386017 100.75390625 24.44140625 C100.81940656 25.80705836 100.88524298 27.1726944 100.95140076 28.53831482 C101.08944412 31.40733641 101.22446329 34.27647901 101.35717773 37.14575195 C101.52636837 40.80174523 101.70131033 44.457433 101.87835789 48.11305332 C102.01481231 50.93818468 102.14897488 53.76342117 102.2823925 56.58869743 C102.37684916 58.58542126 102.47253716 60.58208672 102.56825256 62.57875061 C102.62508713 63.81290207 102.68192169 65.04705353 102.74047852 66.31860352 C102.79075699 67.39400894 102.84103546 68.46941437 102.89283752 69.57740784 C103.02243064 73.71639766 103 77.85898188 103 82 C119.83 82 136.66 82 154 82 C154.77643321 63.68462767 154.77643321 63.68462767 155.39453125 45.3671875 C155.49721108 42.2484439 155.60321595 39.12982901 155.71020508 36.01123047 C155.77944632 33.88838315 155.84208163 31.76531181 155.89868164 29.64208984 C155.9838823 26.50793959 156.09310542 23.37540821 156.20703125 20.2421875 C156.22699661 19.29850311 156.24696198 18.35481873 156.26753235 17.38253784 C156.5039061 11.6655594 157.2854663 8.41034985 161 4 C165.27611679 0.57544394 170.32833911 -0.77315717 175.7578125 -0.51953125 C180.7981808 0.64835897 184.48130025 4.01707511 187.56225586 8.03979492 C189.53247196 12.09631898 189.58230759 15.70424008 189.73046875 20.1640625 C189.77070663 21.06178375 189.81094452 21.959505 189.85240173 22.88442993 C189.97846594 25.79756186 190.08368857 28.71099713 190.1875 31.625 C190.2681484 33.61948924 190.34936759 35.61395547 190.43115234 37.60839844 C191.01359011 52.42025282 191.17237253 67.1759625 191 82 C208.16 82 225.32 82 243 82 C243.144375 74.74 243.28875 67.48 243.4375 60 C243.77395015 43.65628681 244.16679501 27.32727231 245 11 C245.66 11 246.32 11 247 11 C247.061875 10.2575 247.12375 9.515 247.1875 8.75 C248.27549868 5.06754292 249.80268735 4.06049038 253 2 C257.82823381 -0.09923209 262.77933925 -1.25172739 267.859375 0.72265625 C272.47896805 3.16077481 275.63708857 6.27417715 278 11 C278.14618448 12.44007217 278.23616925 13.88606581 278.29663086 15.33227539 C278.33567032 16.23239853 278.37470978 17.13252167 278.41493225 18.05992126 C278.47057594 19.53266258 278.47057594 19.53266258 278.52734375 21.03515625 C278.56866928 22.05722672 278.60999481 23.07929718 278.65257263 24.13233948 C279.10726027 35.89733317 279.3415693 47.6662299 279.5625 59.4375 C279.706875 66.883125 279.85125 74.32875 280 82 C297.49 82 314.98 82 333 82 C333 73.42 333 64.84 333 56 C333.18939529 49.18176957 333.38478745 42.38077162 333.68969727 35.56933594 C333.81557369 32.67943345 333.92042674 29.78916708 334.02539062 26.8984375 C334.10550626 25.03119531 334.18683696 23.16400476 334.26953125 21.296875 C334.29779495 20.44695984 334.32605865 19.59704468 334.35517883 18.72137451 C334.63501448 13.12296276 335.56152063 8.61221327 339.53515625 4.35546875 C343.69881799 1.17149212 345.73120399 -0.14029015 350.9375 -0.125 C351.81277344 -0.12757812 352.68804688 -0.13015625 353.58984375 -0.1328125 C356 0 356 0 359 1 C359 1.66 359 2.32 359 3 C359.763125 3.226875 360.52625 3.45375 361.3125 3.6875 C364.6603252 5.3224844 365.36657551 6.68786855 367 10 C367.47465515 12.75366211 367.47465515 12.75366211 367.6159668 15.77734375 C367.67580246 16.91623047 367.73563812 18.05511719 367.79728699 19.22851562 C367.84742447 20.45248047 367.89756195 21.67644531 367.94921875 22.9375 C368.01156204 24.20916016 368.07390533 25.48082031 368.13813782 26.79101562 C368.26781091 29.484142 368.39246496 32.17689791 368.50805664 34.87060547 C368.65460303 38.28547939 368.81536751 41.6994705 368.98198223 45.11341858 C369.14236853 48.40873096 369.2960095 51.70434717 369.44921875 55 C369.53353401 56.81165649 369.53353401 56.81165649 369.61955261 58.65991211 C369.95646551 66.44490677 370.06416079 74.20807895 370 82 C371.0737085 81.98428955 372.14741699 81.9685791 373.25366211 81.95239258 C377.27360399 81.89770046 381.29351362 81.86350842 385.3137207 81.83520508 C387.04685006 81.82020731 388.77994204 81.79980228 390.51293945 81.77368164 C393.01783525 81.73689797 395.5222252 81.72018349 398.02734375 81.70703125 C398.79022202 81.69154739 399.55310028 81.67606354 400.33909607 81.66011047 C410.77788997 81.65691442 418.20463829 85.65043535 425.7265625 92.59375 C434.11062518 101.34951989 433.51201884 113.25533591 433.6875 124.625 C433.72074356 126.12112232 433.75523947 127.61721735 433.79101562 129.11328125 C433.87510397 132.74198716 433.94228685 136.37076745 434 140 C434.62623764 140.02283554 435.25247528 140.04567108 435.89768982 140.06919861 C442.50194603 140.31039454 449.10610031 140.55425402 455.71020508 140.79956055 C458.16460771 140.8903929 460.61903437 140.98057884 463.07348633 141.07006836 C470.02331379 141.32369101 476.97245344 141.58936174 483.92102051 141.87554932 C485.87504007 141.95452973 487.82921592 142.02980057 489.78356934 142.10003662 C492.16239193 142.186262 494.53999462 142.28775656 496.91796875 142.39453125 C498.19051514 142.44585205 499.46306152 142.49717285 500.77416992 142.55004883 C507.02155251 143.42145775 510.16971463 146.7693397 514 151.4375 C515.85102437 156.18074994 515.37665717 159.85020442 513.8125 164.625 C510.92683585 169.99830566 507.81019145 173.13842265 502 175 C498.74536133 175.30297852 498.74536133 175.30297852 495.08203125 175.37890625 C494.42474533 175.39590073 493.76745941 175.4128952 493.09025574 175.43040466 C490.99776725 175.48321766 488.90528951 175.52360596 486.8125 175.5625 C476.34967771 175.7138893 476.34967771 175.7138893 465.92578125 176.5234375 C459.42455421 177.26059199 452.90874255 177.10589443 446.375 177.0625 C441.96125 177.041875 437.5475 177.02125 433 177 C433 193.83 433 210.66 433 228 C438.5996875 228.185625 438.5996875 228.185625 444.3125 228.375 C447.54834498 228.49357233 450.78400709 228.61601803 454.01963806 228.74024963 C458.16268343 228.89772092 462.30585428 229.04449656 466.44970703 229.17919922 C471.29119051 229.33724508 476.13164263 229.51524974 480.97201538 229.7041626 C482.90230039 229.77619952 484.83284388 229.84162401 486.76358032 229.90032959 C489.50742326 229.9849718 492.24941082 230.09343112 494.9921875 230.20703125 C495.81304337 230.2269664 496.63389923 230.24690155 497.47962952 230.2674408 C503.93041878 230.57318877 507.43755442 232.84215109 512.375 237 C514.99107455 241.8296761 514.58258201 246.63296326 514 252 C512.59399294 256.63155268 510.63443823 258.80120403 506.38549805 261.12158203 C500.99649583 263.10598792 495.12195646 262.94943097 489.4375 263.1875 C488.00263201 263.26051133 486.56781796 263.33458962 485.13305664 263.40966797 C467.76908947 264.27820504 450.37909856 264.61522291 433 265 C433 281.83 433 298.66 433 316 C439.27 316 445.54 316 452 316 C455.23945235 316.04522263 458.47319766 316.09597335 461.7109375 316.18359375 C462.88953842 316.21333031 462.88953842 316.21333031 464.09194946 316.2436676 C465.71286184 316.28531303 467.33374346 316.32817519 468.95458984 316.37231445 C471.39541746 316.43804988 473.83634779 316.49752541 476.27734375 316.55664062 C483.30280926 316.73499169 490.32768332 316.95578503 497.34375 317.3671875 C498.32279297 317.42374512 499.30183594 317.48030273 500.31054688 317.53857422 C505.04982012 318.35168482 508.56867437 320.7145249 512 324 C515.04030143 328.33012628 515.6316853 331.76603606 515 337 C513.07676206 342.10977923 510.85174793 346.48119198 505.90234375 349.1171875 C501.8141907 350.36069031 497.81219507 350.76368689 493.5625 351.125 C492.57636719 351.20991699 491.59023438 351.29483398 490.57421875 351.38232422 C471.45863609 352.76642162 452.12858579 352.11121271 433 352 C433.33 369.16 433.66 386.32 434 404 C438.888125 404.08636719 443.77625 404.17273438 448.8125 404.26171875 C451.9206801 404.32742967 455.0287001 404.39456281 458.13671875 404.46679688 C463.06316305 404.58115859 467.98933045 404.69041687 472.91650391 404.76831055 C476.89180359 404.83148751 480.8659605 404.91836051 484.84042358 405.02124977 C486.35198992 405.05629615 487.86377501 405.08299589 489.37564087 405.10095787 C499.07238154 405.22285043 505.83619095 405.98957142 512.97265625 412.9140625 C515.25651693 417.5512549 514.5490319 422.99008395 514 428 C511.70677589 433.22855097 508.1460011 435.76242834 503 438 C500.18102218 438.46297598 497.69808767 438.7373314 494.875 438.828125 C494.10225235 438.86694794 493.3295047 438.90577087 492.53334045 438.94577026 C490.02266814 439.06603055 487.51188533 439.15889303 485 439.25 C483.26225303 439.32585379 481.52454142 439.40252187 479.78686523 439.47998047 C464.18186585 440.13771118 448.61808286 440.14945534 433 440 C433.33 456.83 433.66 473.66 434 491 C437.70089844 491.13277344 441.40179687 491.26554687 445.21484375 491.40234375 C448.85572974 491.53429124 452.49659126 491.66689573 456.13745117 491.79956055 C458.6403561 491.89041447 461.14328537 491.98060062 463.64624023 492.07006836 C470.72505883 492.3233381 477.80304399 492.59098461 484.8805542 492.87857056 C487.71065751 492.98873688 490.54072033 493.08081483 493.37158203 493.16870117 C494.89489482 493.22869641 496.41817358 493.28956634 497.94140625 493.3515625 C499.84128296 493.41657959 499.84128296 493.41657959 501.77954102 493.48291016 C506.86001155 494.29865093 509.99343191 496.93173755 513 501 C515.25409021 505.50818043 514.69830571 511.13456916 514 516 C511.16122734 521.25372856 507.58842376 524.07261154 502 526 C499.44961548 526.31643677 499.44961548 526.31643677 496.71337891 526.41064453 C495.68105133 526.45053497 494.64872375 526.49042542 493.58511353 526.53152466 C491.92263077 526.58166214 491.92263077 526.58166214 490.2265625 526.6328125 C489.07062592 526.67437469 487.91468933 526.71593689 486.72372437 526.75875854 C484.27445788 526.84519063 481.82503509 526.92728637 479.37548828 527.00537109 C475.67313326 527.1234647 471.97138147 527.25382168 468.26953125 527.38671875 C456.51092178 527.79724228 444.76652505 528.15668803 433 528 C433.02618408 529.00788574 433.05236816 530.01577148 433.0793457 531.05419922 C433.17068241 534.83733419 433.22754761 538.62037434 433.2746582 542.40429688 C433.29961442 544.03369603 433.33359254 545.66298542 433.37719727 547.29199219 C433.68020696 558.91330534 432.81761731 566.99077941 425.4375 576.4375 C423.36956152 578.6114866 421.56791522 580.45925087 419 582 C418.01 582 417.02 582 416 582 C416 582.66 416 583.32 416 584 C405.98544747 587.25143049 396.6353823 587.36139172 386.25 587.1875 C384.66667952 587.17241303 383.08334499 587.15873178 381.5 587.14648438 C377.66631223 587.11382574 373.83331641 587.06227063 370 587 C369.98018066 587.9072583 369.96036133 588.8145166 369.93994141 589.74926758 C369.5591694 606.53163576 369.11553927 623.31764418 368.2958374 640.08505249 C368.2240074 641.60333649 368.1585461 643.12193609 368.09967041 644.64077759 C368.01542032 646.76963571 367.90729956 648.8960102 367.79296875 651.0234375 C367.7364917 652.22919434 367.68001465 653.43495117 367.62182617 654.67724609 C366.63416997 659.9548279 364.13533957 663.05790972 360.0625 666.4375 C354.74242958 669.18408733 348.64795467 668.27822132 343 667 C339.875 664.8125 339.875 664.8125 338 662 C337.4225 661.154375 336.845 660.30875 336.25 659.4375 C332.98403453 650.45609497 333.81698019 639.81610765 333.68359375 630.359375 C333.66281265 629.11117981 333.64203156 627.86298462 333.62062073 626.57696533 C333.55583704 622.6346933 333.49657514 618.69236128 333.4375 614.75 C333.39469799 612.05858032 333.35071989 609.36718029 333.30664062 606.67578125 C333.19955428 600.11724774 333.09995366 593.55866151 333 587 C315.84 587 298.68 587 281 587 C281 590.96 281 594.92 281 599 C280.89705907 601.26335185 280.76878497 603.52593661 280.59765625 605.78515625 C280.51273926 606.96255371 280.42782227 608.13995117 280.34033203 609.35302734 C280.20280518 611.18921631 280.20280518 611.18921631 280.0625 613.0625 C279.48774997 620.9351017 278.96532365 628.7820064 278.78515625 636.67578125 C278.75607178 637.88806396 278.7269873 639.10034668 278.69702148 640.34936523 C278.65024964 642.63896612 278.61892113 644.92895366 278.60571289 647.21899414 C278.47117033 653.57403538 277.84634668 658.7655778 274 664 C269.06450315 668.02897702 264.9082295 668.65214157 258.5859375 668.375 C254.74756078 667.81837739 252.773774 666.70612097 250 664 C245.43950114 656.85180235 245.17990176 650.15528315 244.8125 641.8125 C244.73944839 640.42703001 244.66536989 639.04161383 244.59033203 637.65625 C243.71691172 620.78518303 243.38379201 603.88684834 243 587 C225.84 587 208.68 587 191 587 C191 594.92 191 602.84 191 611 C190.5625 618.125 190.5625 618.125 190.28125 621.53125 C189.99313383 625.48700718 189.88744191 629.44175189 189.78125 633.40625 C189.76287582 634.07558563 189.74450165 634.74492126 189.72557068 635.43453979 C189.65093014 638.17649442 189.57681307 640.91828822 189.52127075 643.66070557 C189.48187583 645.59950508 189.4305718 647.53805117 189.37890625 649.4765625 C189.3538501 650.61174316 189.32879395 651.74692383 189.30297852 652.91650391 C188.913044 656.88497524 188.09433427 659.83339837 185.34375 662.765625 C184.43109375 663.50039062 184.43109375 663.50039062 183.5 664.25 C182.8915625 664.75015625 182.283125 665.2503125 181.65625 665.765625 C177.26297517 669.03985813 172.26951125 668.52173379 167 668 C161.85100397 665.65954726 159.06920686 662.19478677 157 657 C156.29869661 653.20450214 156.11893509 649.42614752 155.953125 645.57421875 C155.89219666 644.47261917 155.83126831 643.37101959 155.76849365 642.23603821 C155.57886008 638.72050808 155.41464908 635.20427877 155.25 631.6875 C155.12523867 629.36645313 154.99895053 627.04548779 154.87109375 624.72460938 C154.75118902 622.44538651 154.63265825 620.16609087 154.515625 617.88671875 C154.43601532 616.35285774 154.43601532 616.35285774 154.35479736 614.78800964 C153.92413205 605.49793702 154 596.33507993 154 587 C136.84 587 119.68 587 102 587 C102.061875 593.7134375 102.061875 593.7134375 102.125 600.5625 C102.15500982 612.89457877 101.91174532 625.20822425 101.36322021 637.52853394 C101.28803203 639.25281585 101.21917445 640.97738601 101.15679932 642.70217896 C101.06619313 645.13867179 100.95067244 647.57274238 100.828125 650.0078125 C100.80501251 650.72844376 100.78190002 651.44907501 100.75808716 652.19154358 C100.46586258 657.17969499 99.12306489 660.1335858 96 664 C90.96073751 667.90799948 86.93646152 668.64379294 80.5859375 668.3828125 C75.67139321 667.65528177 73.134932 665.2546422 69.90527344 661.68432617 C66.66771289 656.65940604 67.16156142 650.45461799 66.953125 644.67578125 C66.89219666 643.37859665 66.83126831 642.08141205 66.76849365 640.74491882 C66.60733169 637.30233549 66.468788 633.85919388 66.33465576 630.41546631 C66.22253973 627.63034896 66.09486783 624.84605283 65.9662056 622.06165791 C65.69840506 616.26227474 65.44350769 610.46232239 65.21191406 604.66137695 C65.1706842 603.63800735 65.12945435 602.61463776 65.0869751 601.56025696 C64.96844202 596.70819902 65 591.85350558 65 587 C47.84 587 30.68 587 13 587 C13 593.93 13 600.86 13 608 C12.51953125 615.75390625 12.51953125 615.75390625 12.24072266 619.33642578 C11.97619757 623.36225077 11.8795923 627.36935153 11.82421875 631.40234375 C11.80015227 632.82096392 11.77606373 634.23958371 11.75195312 635.65820312 C11.71669012 637.81269871 11.68732116 639.96658619 11.67407227 642.12133789 C11.5634223 657.30421491 11.5634223 657.30421491 7 664 C2.06175482 668.03122055 -2.09022545 668.64269621 -8.4140625 668.3828125 C-13.48916743 667.63151298 -16.03022935 665.10082074 -19.3125 661.375 C-23.37330718 653.25338563 -22.26741885 642.57983343 -22.53515625 633.6796875 C-22.57827178 632.32633535 -22.62168837 630.97299277 -22.66539001 629.61965942 C-22.77851277 626.09188602 -22.88759946 622.56399946 -22.99578857 619.03607178 C-23.10734098 615.42240662 -23.22278946 611.80886605 -23.33789062 608.1953125 C-23.5623641 601.1303242 -23.78256544 594.06520872 -24 587 C-25.00788574 587.01571045 -26.01577148 587.0314209 -27.05419922 587.04760742 C-30.83748197 587.10241159 -34.62073054 587.13653123 -38.40429688 587.16479492 C-40.03358891 587.17976766 -41.66284145 587.20015321 -43.29199219 587.22631836 C-56.40792 587.43150619 -67.54182017 586.8954633 -78 578 C-84.47092431 571.0487014 -87.49284098 564.07625081 -87.29296875 554.66015625 C-87.28872391 553.89319931 -87.28447906 553.12624237 -87.28010559 552.33604431 C-87.2634507 549.91115668 -87.22582553 547.48713202 -87.1875 545.0625 C-87.17243601 543.40821522 -87.15875062 541.75391727 -87.14648438 540.09960938 C-87.11359077 536.06607897 -87.06190249 532.03318527 -87 528 C-87.58199158 527.98969254 -88.16398315 527.97938507 -88.76361084 527.96876526 C-94.93037231 527.85890974 -101.09703847 527.74450417 -107.26367188 527.62768555 C-109.55206266 527.58489841 -111.84047403 527.54319609 -114.12890625 527.50268555 C-120.71663076 527.38566676 -127.30331537 527.2481458 -133.88989258 527.07794189 C-135.92280265 527.02699547 -137.95585349 526.98132092 -139.98901367 526.94158936 C-142.72797042 526.88499886 -145.46504679 526.80359474 -148.203125 526.71484375 C-148.99716736 526.70288467 -149.79120972 526.6909256 -150.60931396 526.67860413 C-156.12481585 526.46090266 -159.43029278 525.12556164 -164 522 C-168.31417008 517.23170675 -169.24577294 512.27745049 -169 506 C-167.39257166 500.98860577 -164.37207438 497.83479484 -160 495 C-156.71606445 494.11376953 -156.71606445 494.11376953 -153.05078125 493.7578125 C-152.3690535 493.68869659 -151.68732574 493.61958069 -150.98493958 493.54837036 C-142.07217511 492.70949727 -133.11357679 492.35265041 -124.17114258 491.99462891 C-121.17430612 491.87447099 -118.17800367 491.74467283 -115.18164062 491.61328125 C-113.23960692 491.53069346 -111.29755026 491.44864334 -109.35546875 491.3671875 C-108.03943916 491.31097733 -108.03943916 491.31097733 -106.69682312 491.25363159 C-100.44920789 491.00632096 -94.26504432 491 -88 491 C-88 474.5 -88 458 -88 441 C-92.888125 440.84144531 -97.77625 440.68289063 -102.8125 440.51953125 C-105.92071408 440.40818016 -109.02875486 440.29544424 -112.13671875 440.17773438 C-117.06296505 439.99129101 -121.98902371 439.8098256 -126.91650391 439.65893555 C-130.89208445 439.53687129 -134.86622715 439.39171102 -138.84042358 439.23093224 C-140.35187277 439.17377035 -141.86365362 439.1247432 -143.37564087 439.08423805 C-159.10540852 438.65226134 -159.10540852 438.65226134 -165 433 C-167.82099485 429.68627842 -169.22977358 426.29144567 -169.4375 421.9375 C-168.81102179 416.29919607 -167.22298879 412.8547887 -162.9375 409.1875 C-159.45107108 406.59122314 -157.85539337 405.87913021 -153.62402344 405.70288086 C-152.25923859 405.6429319 -152.25923859 405.6429319 -150.86688232 405.58177185 C-149.3781662 405.52389244 -149.3781662 405.52389244 -147.859375 405.46484375 C-146.82677551 405.42186661 -145.79417603 405.37888947 -144.73028564 405.33460999 C-142.52780135 405.24417555 -140.32522054 405.1560673 -138.12255859 405.07006836 C-134.83269526 404.94075058 -131.54333268 404.80204795 -128.25390625 404.66210938 C-126.10158587 404.57494191 -123.94924256 404.48833829 -121.796875 404.40234375 C-120.8448822 404.36173325 -119.8928894 404.32112274 -118.91204834 404.27928162 C-108.25911281 403.87618237 -97.68857966 404 -87 404 C-87 387.17 -87 370.34 -87 353 C-91.29 353 -95.58 353 -100 353 C-103.4713068 352.88999549 -106.93411037 352.7630798 -110.40234375 352.59765625 C-111.32737198 352.55563583 -112.25240021 352.51361542 -113.20545959 352.47032166 C-115.14053768 352.381776 -117.07555115 352.29180699 -119.01049805 352.20043945 C-121.92806782 352.06294451 -124.84583553 351.93053176 -127.76367188 351.79882812 C-133.1767912 351.55126493 -138.58873975 351.28531916 -144 351 C-145.12125778 350.94101028 -145.12125778 350.94101028 -146.26516724 350.88082886 C-148.22936721 350.77316286 -150.19285434 350.65270368 -152.15625 350.53125 C-153.21521484 350.46615234 -154.27417969 350.40105469 -155.36523438 350.33398438 C-160.10404342 349.73329027 -162.5206221 347.82443387 -165.45703125 344.203125 C-168.56188374 339.78961568 -169.88235649 336.49021813 -169 331 C-167.14231789 325.75303618 -164.8142599 322.00891244 -160 319 C-156.07199669 317.61508594 -151.94046551 317.79193882 -147.82421875 317.71875 C-147.02200394 317.70034058 -146.21978912 317.68193115 -145.39326477 317.66296387 C-142.82474948 317.60436692 -140.25616412 317.55162901 -137.6875 317.5 C-134.3371395 317.43109302 -130.98689212 317.35874007 -127.63671875 317.28125 C-126.81186981 317.26223633 -125.98702087 317.24322266 -125.13717651 317.22363281 C-120.14558569 317.09482875 -115.18660969 316.83755957 -110.20703125 316.46875 C-102.8186496 315.98820485 -95.40399264 316 -88 316 C-88 299.17 -88 282.34 -88 265 C-92.558125 264.855625 -97.11625 264.71125 -101.8125 264.5625 C-107.54175674 264.37770491 -113.2709058 264.18975577 -119 264 C-120.28986816 263.9572998 -121.57973633 263.91459961 -122.90869141 263.87060547 C-126.48092457 263.75054227 -130.05297563 263.62610741 -133.625 263.5 C-134.68178955 263.46463135 -135.7385791 263.4292627 -136.82739258 263.39282227 C-142.24052608 263.19715652 -147.64583471 262.92826592 -153.05078125 262.5703125 C-154.10434814 262.50086426 -155.15791504 262.43141602 -156.2434082 262.35986328 C-160.81459996 261.76311041 -163.38781378 260.00378981 -166.23828125 256.4609375 C-169.13261848 252.1045124 -169.82986231 248.14109822 -169 243 C-167.35104977 237.79278876 -165.54766546 235.03177697 -161 232 C-158.23100408 230.61550204 -155.79725329 230.69056495 -152.703125 230.5 C-152.05364899 230.45966644 -151.40417297 230.41933289 -150.73501587 230.3777771 C-148.57363802 230.24622879 -146.41190604 230.12254364 -144.25 230 C-143.5112262 229.95675598 -142.77245239 229.91351196 -142.0112915 229.86895752 C-123.68346928 228.80507208 -105.35396799 228.40786596 -87 228 C-87.33 211.5 -87.66 195 -88 178 C-95.22390625 177.74476563 -95.22390625 177.74476563 -102.59375 177.484375 C-105.65635734 177.36790922 -108.7188462 177.25035709 -111.78125 177.12890625 C-116.6350983 176.93651217 -121.48886654 176.74801643 -126.34375 176.58349609 C-130.26077589 176.45050385 -134.17673212 176.29939808 -138.09260559 176.13605499 C-139.58177346 176.07706101 -141.07120891 176.02444278 -142.56083679 175.978508 C-159.60192219 175.44389112 -159.60192219 175.44389112 -165.875 169.10546875 C-168.5352009 164.57019568 -169.78436495 161.39250902 -169 156 C-167.17698367 150.12583628 -164.83361931 147.49666077 -160 144 C-157.13541941 142.56770971 -154.49876465 142.66960281 -151.3046875 142.47265625 C-150.63581512 142.43133072 -149.96694275 142.39000519 -149.27780151 142.34742737 C-142.23122585 141.92708521 -135.1804484 141.65830865 -128.125 141.4375 C-127.46877655 141.41632111 -126.8125531 141.39514221 -126.13644409 141.37332153 C-113.09069372 140.95756854 -100.0516193 140.88512454 -87 141 C-87.0314209 139.93676514 -87.0628418 138.87353027 -87.09521484 137.77807617 C-87.20487867 133.78441394 -87.27307652 129.79088087 -87.32958984 125.79614258 C-87.35952444 124.07651293 -87.40028857 122.35703279 -87.45263672 120.63793945 C-87.79489803 109.0983645 -87.51530922 100.02736705 -79.22314453 91.08349609 C-72.02383428 84.23172358 -63.89133703 81.8424761 -54.17578125 81.90234375 C-52.88367989 81.90446617 -52.88367989 81.90446617 -51.56547546 81.90663147 C-48.81444831 81.9122286 -46.06350256 81.92478054 -43.3125 81.9375 C-41.4472668 81.94251537 -39.58203233 81.94707821 -37.71679688 81.95117188 C-33.14449989 81.96219708 -28.57226375 81.97945973 -24 82 C-23.97716446 81.247686 -23.95432892 80.49537201 -23.93080139 79.72026062 C-23.71366749 72.58625016 -23.4933306 65.45234887 -23.26950932 58.31854534 C-23.1545859 54.65211148 -23.04084632 50.9856493 -22.92993164 47.3190918 C-22.82259367 43.7722783 -22.7119901 40.22557956 -22.59924126 36.6789341 C-22.53669449 34.68573831 -22.47742004 32.69244069 -22.41822815 30.69914246 C-21.72877384 9.2999991 -21.72877384 9.2999991 -18.75 5.5 C-12.81160474 0.10145886 -8.03889928 -1.39415876 0 0 Z M-35.75 137.87890625 C-43.41974171 147.37021162 -44.58826222 156.8622132 -44.50120544 168.76428223 C-44.50510373 170.2465946 -44.51074839 171.72890322 -44.51797634 173.2112031 C-44.53267338 177.26260302 -44.52258426 181.31361198 -44.50823963 185.36499906 C-44.49710083 189.74271595 -44.50908204 194.1203793 -44.51808167 198.49809265 C-44.53199636 207.06538697 -44.52447103 215.63253363 -44.50940608 224.19982088 C-44.49252328 234.18187627 -44.49575912 244.16389512 -44.49950016 254.14596039 C-44.50537551 271.95947865 -44.49121996 289.77292616 -44.46655273 307.58642578 C-44.44263294 324.8621689 -44.43554891 342.13781751 -44.44604492 359.41357422 C-44.45746062 378.23672672 -44.45937613 397.05983553 -44.44494683 415.8829875 C-44.44342103 417.89108244 -44.44190067 419.89917739 -44.44038582 421.90727234 C-44.439628 422.89523093 -44.43887019 423.88318951 -44.43808941 424.90108624 C-44.43335163 431.85506936 -44.43519444 438.80903293 -44.43945122 445.76301575 C-44.44438375 454.2404048 -44.43836732 462.7177046 -44.41855692 471.19507325 C-44.40870215 475.51834331 -44.40356017 479.84147762 -44.41144943 484.16475487 C-44.41853023 488.12612088 -44.41164585 492.08721354 -44.3938458 496.04854363 C-44.38981681 497.4777485 -44.39077505 498.90697848 -44.39736467 500.33617383 C-44.4570075 514.48854968 -42.13299346 523.39779537 -32.375 533.71875 C-23.12431024 542.43574612 -12.65948051 543.73412541 -0.48353577 543.63491821 C1.06833974 543.64068837 2.6202084 543.64863547 4.17206293 543.65855443 C8.41122279 543.67932878 12.64981615 543.66915583 16.88897741 543.65362334 C21.4705532 543.64227487 26.05203399 543.6597899 30.6335907 543.67352295 C39.59915033 543.69572318 48.56450034 543.69096835 57.53006809 543.67645974 C64.81900351 543.66515414 72.1078803 543.66364233 79.39682198 543.66907883 C80.95469312 543.67022807 80.95469312 543.67022807 82.54403641 543.67140054 C84.65410277 543.67299922 86.76416913 543.67462028 88.87423546 543.6762635 C108.64763041 543.69051177 128.42090936 543.67414309 148.19428528 543.64726166 C165.14772941 543.62492704 182.10100233 543.62880141 199.05444336 543.65185547 C218.75696443 543.67863543 238.45938387 543.68913509 258.16192061 543.67379415 C260.26440114 543.67220146 262.36688169 543.67062961 264.46936226 543.66907883 C265.50373431 543.66830745 266.53810636 543.66753607 267.60382302 543.66674132 C274.88050364 543.66243067 282.1571196 543.66969725 289.43379021 543.68147659 C298.30676561 543.69552467 307.17951995 543.69165328 316.05247014 543.66507287 C320.57657718 543.65196523 325.10031615 543.64672995 329.62442017 543.66331863 C333.77166371 543.67829504 337.91820046 543.66990451 342.06538052 543.64343087 C343.55986471 543.63787824 345.05440949 543.6406135 346.54885422 543.65280981 C358.47464 543.74261735 368.80355339 541.39198263 378.2578125 533.72265625 C381.47192573 530.54457568 383.86104038 526.96647732 386 523 C386.49301896 522.15285058 386.49301896 522.15285058 386.99599791 521.28858703 C390.70981868 514.1553445 390.56152231 507.2372349 390.50793457 499.35597229 C390.51254867 497.87452217 390.518905 496.39307662 390.52684355 494.91164058 C390.54349047 490.85799018 390.53531178 486.80471806 390.52289867 482.75106657 C390.51383135 478.37264383 390.5278263 473.99428517 390.53881836 469.61587524 C390.55659067 461.04510836 390.55276921 452.47448171 390.5411678 443.90370936 C390.53212809 436.93651108 390.5309118 429.96935205 390.53526306 423.00214958 C390.53618246 421.51377751 390.53618246 421.51377751 390.53712043 419.99533732 C390.53839936 417.97948543 390.53969621 415.96363354 390.5410108 413.94778167 C390.55241298 395.05147727 390.53930887 376.15525053 390.51780933 357.25895887 C390.49994145 341.05305282 390.50304062 324.8472614 390.52148438 308.64135742 C390.54290224 289.8134467 390.55131147 270.98560404 390.53903532 252.15768284 C390.53776115 250.14901063 390.53650367 248.14033841 390.53526306 246.13166618 C390.53464596 245.14341261 390.53402886 244.15515903 390.53339306 243.13695838 C390.5299427 236.18047211 390.53576178 229.22402909 390.54518127 222.26754951 C390.55641292 213.78645801 390.5533368 205.30551455 390.5320583 196.82443995 C390.52156315 192.49911157 390.51739974 188.1740298 390.53065491 183.84870338 C390.54261677 179.88537788 390.53595427 175.92252644 390.5147447 171.95924365 C390.5102946 170.52933549 390.51250898 169.09938687 390.52224785 167.66950495 C390.59857227 155.52729533 388.1027057 145.3546259 380 136 C369.22412594 126.56644935 358.6879989 124.40044772 344.67298889 124.49206543 C343.12951665 124.48745053 341.58604881 124.48109367 340.04259008 124.47315645 C335.82211087 124.4565206 331.60199534 124.46468319 327.38151515 124.47710133 C322.82176781 124.4861732 318.26208184 124.47217146 313.7023468 124.46118164 C304.77778389 124.44341419 295.85335569 124.44722862 286.92878754 124.4588322 C279.67367405 124.4678738 272.41859826 124.46908738 265.16348076 124.46473694 C264.13002651 124.46412401 263.09657225 124.46351107 262.03180121 124.46287957 C259.93220158 124.46160064 257.83260196 124.46030378 255.73300236 124.4589892 C236.05408301 124.44758845 216.37523825 124.4606889 196.69633114 124.48219067 C179.82103561 124.50005853 162.94585017 124.49695912 146.07055664 124.47851562 C126.46255111 124.45709543 106.85461092 124.44868983 87.24659532 124.46096468 C85.15450856 124.46223884 83.06242179 124.46349633 80.97033501 124.46473694 C79.94105548 124.46535404 78.91177595 124.46597114 77.85130613 124.46660694 C70.60773914 124.47005659 63.3642137 124.46423975 56.12065315 124.45481873 C47.28900973 124.44358449 38.45750846 124.44666864 29.62588126 124.4679417 C25.12220188 124.47843334 20.61875926 124.48260625 16.11508179 124.46934509 C11.98767998 124.45737598 7.86073313 124.46405766 3.73337226 124.4852553 C2.24492996 124.48970234 0.75644876 124.48749803 -0.73196828 124.47775215 C-14.95253236 124.39182314 -25.85344834 127.25336753 -35.75 137.87890625 Z " fill="#020202" transform="translate(176,10)"/>
<path d="M0 0 C5.34137211 1.28858004 9.41849991 4.35282276 13.92919922 7.38720703 C18.10909562 10.07547334 22.48429217 12.43395122 26.82421875 14.8515625 C34.86611509 19.36498565 42.86565437 23.94276256 50.82421875 28.6015625 C67.1854747 38.17705642 83.6045298 47.65130934 100.07421875 57.0390625 C107.57227858 61.31443233 115.02795484 65.65566652 122.4609375 70.04296875 C138.72489299 79.64142829 155.07805146 89.0694006 171.53515625 98.33251953 C177.04510519 101.43403851 182.54485957 104.54941634 188.01171875 107.7265625 C188.88159424 108.22663818 188.88159424 108.22663818 189.76904297 108.73681641 C191.54500307 109.76272342 193.31050074 110.80477662 195.07421875 111.8515625 C196.09644531 112.45226562 197.11867188 113.05296875 198.171875 113.671875 C201.96317556 116.41496179 205.42258647 119.09210527 206.47502136 123.79833984 C206.65499487 126.22438993 206.6788402 128.60272175 206.640625 131.03515625 C206.64303696 131.92010269 206.64544891 132.80504913 206.64793396 133.71681213 C206.64695779 135.58184301 206.63361915 137.44690369 206.60864258 139.31176758 C206.57436172 142.15221607 206.58798807 144.98954489 206.60742188 147.83007812 C206.6005217 149.64845063 206.59084775 151.46681516 206.578125 153.28515625 C206.58308487 154.12702988 206.58804474 154.9689035 206.59315491 155.83628845 C206.47935278 161.59207077 205.3092468 164.98257511 202.01171875 169.7265625 C199.890625 171.44140625 199.890625 171.44140625 197.57421875 172.6640625 C196.259375 173.38916016 196.259375 173.38916016 194.91796875 174.12890625 C193.95890625 174.65613281 192.99984375 175.18335938 192.01171875 175.7265625 C189.85986859 177.0501634 187.71425505 178.38394449 185.57421875 179.7265625 C180.77231761 182.7316636 175.8640832 185.46682916 170.88305664 188.16455078 C166.37748552 190.6155876 161.91295399 193.1378477 157.44921875 195.6640625 C156.47033691 196.21763428 155.49145508 196.77120605 154.48291016 197.34155273 C145.82128631 202.24953271 137.19622041 207.219923 128.57714844 212.20214844 C121.79406841 216.12301564 115.00322954 220.02962819 108.19921875 223.9140625 C106.92534302 224.6414563 106.92534302 224.6414563 105.62573242 225.38354492 C101.38081346 227.80636969 97.13423144 230.22625702 92.88671875 232.64453125 C82.59139577 238.51091183 72.33967504 244.44643486 62.11425781 250.43383789 C54.1377434 255.09409264 46.10319748 259.64523551 38.0480957 264.16796875 C31.97748546 267.58595071 25.99246065 271.11728102 20.0480957 274.74926758 C15.23334083 277.66228696 10.27781205 280.19883772 5.20703125 282.6328125 C3.08980253 283.5426191 3.08980253 283.5426191 2.01171875 284.7265625 C-2.69809026 285.12569886 -5.09769207 285.17185709 -9.36328125 283.0390625 C-12.62580896 280.16493094 -13.77591309 277.99978142 -14.18426514 273.62872314 C-14.28645856 271.03694225 -14.31790739 268.45317302 -14.32421875 265.859375 C-14.33087555 264.90642548 -14.33753235 263.95347595 -14.34439087 262.97164917 C-14.35449714 260.95947189 -14.35920852 258.94726123 -14.35888672 256.93505859 C-14.36325654 253.86889988 -14.39958855 250.80418521 -14.4375 247.73828125 C-14.44336938 245.77865073 -14.44733796 243.81901341 -14.44921875 241.859375 C-14.46358978 240.94874298 -14.47796082 240.03811096 -14.49276733 239.09988403 C-14.45020588 233.12198572 -13.48029524 229.6194472 -9.98828125 224.7265625 C-7.30078125 222.63671875 -7.30078125 222.63671875 -3.98828125 220.7890625 C-3.35728516 220.42973633 -2.72628906 220.07041016 -2.07617188 219.70019531 C-0.59527228 218.85874407 0.89014827 218.02522202 2.37890625 217.19775391 C5.40608998 215.50619148 8.41225822 213.78020867 11.41796875 212.05078125 C22.50067633 205.67786203 33.6231496 199.37628009 44.76171875 193.1015625 C54.77960133 187.45767263 64.71248827 181.67377076 74.63671875 175.8671875 C85.86024051 169.30204735 97.19028266 162.9255671 108.51220703 156.53222656 C116.02614122 152.28809505 123.52622995 148.02066439 131.01171875 143.7265625 C127.19140537 140.47492172 123.14971451 137.99192508 118.76171875 135.6015625 C112.92026772 132.36947343 107.13131294 129.06540669 101.38671875 125.6640625 C96.4275285 122.73168143 91.4579618 119.82395704 86.44921875 116.9765625 C81.19200295 113.98787133 75.96714704 110.94814732 70.75024414 107.88964844 C61.39011321 102.40404398 51.99125194 97.00336161 42.51171875 91.7265625 C31.13849715 85.39248173 19.87178767 78.88990318 8.65722656 72.27929688 C6.21764792 70.84742901 3.76915863 69.43257817 1.31640625 68.0234375 C-0.03533975 67.23729461 -1.38691727 66.45086191 -2.73828125 65.6640625 C-3.8675 65.01308594 -4.99671875 64.36210937 -6.16015625 63.69140625 C-10.10366986 60.95164472 -12.46655495 58.29174141 -13.98828125 53.7265625 C-14.10377724 52.24537888 -14.16714752 50.7597934 -14.19702148 49.27441406 C-14.2163121 48.37627991 -14.23560272 47.47814575 -14.25547791 46.55279541 C-14.31339467 42.44572153 -14.36249591 38.33881898 -14.39331055 34.23144531 C-14.41488786 32.06852245 -14.44898733 29.90568685 -14.49584961 27.74316406 C-14.56293847 24.61744368 -14.59032419 21.49352686 -14.609375 18.3671875 C-14.63720566 17.40653381 -14.66503632 16.44588013 -14.69371033 15.45611572 C-14.67556224 9.49893082 -13.68906793 6.30497203 -9.52651978 1.97795105 C-6.40610872 -0.56056726 -3.84392535 -0.27713213 0 0 Z " fill="#010101" transform="translate(252.98828125,201.2734375)"/>
<path d="M0 0 C0.66 0.33 1.32 0.66 2 1 C-0.31 3.31 -2.62 5.62 -5 8 C-5.66 7.67 -6.32 7.34 -7 7 C-4.78071806 4.09197539 -3.07030857 2.04687238 0 0 Z " fill="#323431" transform="translate(16,329)"/>
<path d="M0 0 C0.66 0.33 1.32 0.66 2 1 C-1.96 4.465 -1.96 4.465 -6 8 C-6.66 7.67 -7.32 7.34 -8 7 C-5.36 4.69 -2.72 2.38 0 0 Z " fill="#D0D1D0" transform="translate(148,141)"/>
<path d="M0 0 C0.66 0.33 1.32 0.66 2 1 C-0.31 3.31 -2.62 5.62 -5 8 C-5.33 7.34 -5.66 6.68 -6 6 C-2.25 1.125 -2.25 1.125 0 0 Z " fill="#2A2B2B" transform="translate(429,12)"/>
<path d="M0 0 C0.66 0.33 1.32 0.66 2 1 C-0.31 3.31 -2.62 5.62 -5 8 C-5 5 -5 5 -2.5 2.3125 C-1.675 1.549375 -0.85 0.78625 0 0 Z " fill="#282929" transform="translate(340,12)"/>
</svg>
